<svg viewBox="0 0 130 68" fill="none" xmlns="http://www.w3.org/2000/svg">
<path d="M128.149 0.87868C126.978 -0.292893 125.079 -0.292893 123.907 0.87868C122.876 1.9101 118.051 6.18004 108.843 13.6384C99.5451 21.1687 87.9044 27.1947 75.7859 33.0388C64.7005 38.3847 53.4835 40.7336 44.2585 42.6384C35.5489 44.4368 25.3195 45.5472 16.8376 45.5271C16.6944 45.4244 16.5515 45.3218 16.4089 45.2195C16.776 45.157 17.1565 45.0939 17.5495 45.03C20.6938 44.5194 24.4955 43.9811 28.0046 43.3015C31.488 42.6269 35.0415 41.7521 37.7331 40.4441C40.2466 39.2227 43.3193 36.9341 42.9519 33.0154L42.9294 32.824C42.6408 30.8879 40.8739 30.3985 40.5671 30.3308C40.0818 30.2239 39.6724 30.2591 39.5368 30.2713C39.1857 30.3029 38.8541 30.3824 38.6443 30.4373C38.1718 30.5609 37.622 30.747 37.1208 30.9402C36.8369 31.0496 35.8772 31.3233 34.1785 31.7713C32.5572 32.1988 30.5075 32.7239 28.1589 33.3367C23.5083 34.5502 17.8267 36.0735 12.9304 37.6414C10.4852 38.4244 8.18358 39.2352 6.28001 40.0408C4.48932 40.7987 2.67686 41.7012 1.52806 42.7752C0.987343 43.2807 0.0688113 44.3026 0.00364685 45.8045C-0.0725737 47.5613 1.02419 48.7015 1.86302 49.2732C2.67775 49.8284 3.67642 50.1774 4.65111 50.4275C5.67345 50.6898 6.9068 50.9015 8.34544 51.072C10.3482 51.3095 12.5416 51.4475 14.864 51.5008C19.798 55.0384 24.6532 58.5619 28.3503 62.0711L28.3884 62.1072L28.4275 62.1414C31.0944 64.5005 32.9687 65.7505 34.7927 66.9666C36.1711 67.8855 38.0337 67.5127 38.9529 66.1345C39.8719 64.756 39.4994 62.8925 38.1208 61.9734C36.3721 60.8076 34.7774 59.7435 32.4431 57.6824C30.2011 55.5586 27.5276 53.4019 24.7136 51.2722C31.6888 50.8323 39.0203 49.8467 45.4724 48.5144C54.6621 46.6169 66.5585 44.1509 78.3923 38.4441C90.5105 32.6002 102.724 26.3158 112.619 18.3015C121.799 10.8666 126.862 6.40775 128.149 5.12087C129.321 3.94929 129.321 2.05025 128.149 0.87868Z" fill="black"/>
</svg>
