<svg viewBox="0 0 181 100" fill="none" xmlns="http://www.w3.org/2000/svg">
<path d="M1.25631 0.559045C2.60449 -0.403938 4.47879 -0.0917712 5.44186 1.25631C9.78363 7.3348 14.0318 13.2791 20.6157 20.3139C27.2223 27.373 36.0811 35.3786 45.3755 42.5131C54.6428 49.6269 64.0625 55.6224 74.7895 61.2915C85.5254 66.9652 97.2473 72.109 109.411 76.0395C121.58 79.9721 133.894 82.5521 142.998 84.1733C148.703 85.1894 153.275 85.8779 156.973 86.3442C154.78 84.9728 152.763 83.366 151.373 81.4917C150.287 80.0284 149.486 78.2745 149.412 76.269C149.336 74.2393 150.017 72.2884 151.303 70.4809L151.411 70.3393C151.959 69.6533 152.664 69.3587 153.164 69.2436C153.666 69.1278 154.097 69.155 154.347 69.185C154.85 69.2453 155.292 69.402 155.579 69.5161C156.198 69.763 156.891 70.1404 157.575 70.56C158.975 71.4194 160.722 72.6964 162.475 74.2299C164.604 76.0918 169.196 79.7852 172.363 82.6899C173.94 84.1364 175.507 85.6872 176.383 86.9858C176.616 87.3301 176.869 87.7557 177.054 88.2348C177.076 88.2905 177.098 88.3519 177.121 88.4184C177.961 88.723 178.814 89.0515 179.376 89.3715L180.461 89.9897L180.788 91.1948C181.041 92.1304 180.946 93.3082 180.133 94.3315C179.508 95.1186 178.653 95.5508 177.99 95.8178C176.607 96.3741 174.387 96.8465 170.884 97.2905C163.805 98.1877 150.353 99.0634 136.674 99.9555C135.021 100.063 133.593 98.8108 133.485 97.1577C133.377 95.5043 134.63 94.0761 136.284 93.9682C143.966 93.4672 151.469 92.9734 157.791 92.4878C153.701 92.0083 148.546 91.2559 141.946 90.0805C132.705 88.435 120.097 85.7981 107.565 81.7485C95.0262 77.6967 82.9848 72.4084 71.9868 66.5962C60.9799 60.7792 51.2733 54.6035 41.7221 47.2719C32.198 39.9611 23.0902 31.7384 16.2348 24.4135C9.35682 17.0644 4.91087 10.8372 0.559045 4.74459C-0.403938 3.39642 -0.0917712 1.52211 1.25631 0.559045ZM155.439 76.3315C155.513 76.7688 155.727 77.2913 156.191 77.9165C157.408 79.5571 159.845 81.2601 163.075 82.8891C163.362 83.0343 163.654 83.1759 163.948 83.3169C161.947 81.6331 159.998 80.0349 158.525 78.7465C157.426 77.7855 156.355 76.964 155.439 76.3315Z" fill="black"/>
</svg>
