<svg width="32" height="40" viewBox="0 0 32 40" fill="none" xmlns="http://www.w3.org/2000/svg">
<path d="M3.32075 6.56718C5.15476 6.56718 6.64151 5.09706 6.64151 3.28359C6.64151 1.47011 5.15476 0 3.32075 0C1.48675 0 0 1.47011 0 3.28359C0 5.09706 1.48675 6.56718 3.32075 6.56718Z" fill="#020817"/>
<path d="M3.32075 14.9254C5.15476 14.9254 6.64151 13.4553 6.64151 11.6418C6.64151 9.82833 5.15476 8.35822 3.32075 8.35822C1.48675 8.35822 0 9.82833 0 11.6418C0 13.4553 1.48675 14.9254 3.32075 14.9254Z" fill="#020817"/>
<path d="M3.32075 23.2836C5.15476 23.2836 6.64151 21.8135 6.64151 20C6.64151 18.1865 5.15476 16.7164 3.32075 16.7164C1.48675 16.7164 0 18.1865 0 20C0 21.8135 1.48675 23.2836 3.32075 23.2836Z" fill="#020817"/>
<path d="M3.32075 31.6418C5.15476 31.6418 6.64151 30.1716 6.64151 28.3582C6.64151 26.5447 5.15476 25.0746 3.32075 25.0746C1.48675 25.0746 0 26.5447 0 28.3582C0 30.1716 1.48675 31.6418 3.32075 31.6418Z" fill="#020817"/>
<path d="M11.7734 14.9254C13.6074 14.9254 15.0941 13.4553 15.0941 11.6418C15.0941 9.82833 13.6074 8.35822 11.7734 8.35822C9.93939 8.35822 8.45264 9.82833 8.45264 11.6418C8.45264 13.4553 9.93939 14.9254 11.7734 14.9254Z" fill="#020817"/>
<path d="M11.7734 40C13.6074 40 15.0941 38.5299 15.0941 36.7164C15.0941 34.9029 13.6074 33.4328 11.7734 33.4328C9.93939 33.4328 8.45264 34.9029 8.45264 36.7164C8.45264 38.5299 9.93939 40 11.7734 40Z" fill="#020817"/>
<path opacity="0.3" d="M11.7734 6.56718C13.6074 6.56718 15.0941 5.09706 15.0941 3.28359C15.0941 1.47011 13.6074 0 11.7734 0C9.93939 0 8.45264 1.47011 8.45264 3.28359C8.45264 5.09706 9.93939 6.56718 11.7734 6.56718Z" fill="#020817"/>
<path opacity="0.3" d="M11.7734 23.2836C13.6074 23.2836 15.0941 21.8135 15.0941 20C15.0941 18.1865 13.6074 16.7164 11.7734 16.7164C9.93939 16.7164 8.45264 18.1865 8.45264 20C8.45264 21.8135 9.93939 23.2836 11.7734 23.2836Z" fill="#020817"/>
<path opacity="0.3" d="M11.7734 31.6418C13.6074 31.6418 15.0941 30.1716 15.0941 28.3582C15.0941 26.5447 13.6074 25.0746 11.7734 25.0746C9.93939 25.0746 8.45264 26.5447 8.45264 28.3582C8.45264 30.1716 9.93939 31.6418 11.7734 31.6418Z" fill="#020817"/>
<path opacity="0.3" d="M20.2265 14.9254C22.0605 14.9254 23.5473 13.4553 23.5473 11.6418C23.5473 9.82833 22.0605 8.35822 20.2265 8.35822C18.3925 8.35822 16.9058 9.82833 16.9058 11.6418C16.9058 13.4553 18.3925 14.9254 20.2265 14.9254Z" fill="#020817"/>
<path opacity="0.3" d="M20.2265 40C22.0605 40 23.5473 38.5299 23.5473 36.7164C23.5473 34.9029 22.0605 33.4328 20.2265 33.4328C18.3925 33.4328 16.9058 34.9029 16.9058 36.7164C16.9058 38.5299 18.3925 40 20.2265 40Z" fill="#020817"/>
<path opacity="0.1" d="M20.2265 6.56718C22.0605 6.56718 23.5473 5.09706 23.5473 3.28359C23.5473 1.47011 22.0605 0 20.2265 0C18.3925 0 16.9058 1.47011 16.9058 3.28359C16.9058 5.09706 18.3925 6.56718 20.2265 6.56718Z" fill="#020817"/>
<path opacity="0.1" d="M20.2265 23.2836C22.0605 23.2836 23.5473 21.8135 23.5473 20C23.5473 18.1865 22.0605 16.7164 20.2265 16.7164C18.3925 16.7164 16.9058 18.1865 16.9058 20C16.9058 21.8135 18.3925 23.2836 20.2265 23.2836Z" fill="#020817"/>
<path opacity="0.1" d="M20.2265 31.6418C22.0605 31.6418 23.5473 30.1716 23.5473 28.3582C23.5473 26.5447 22.0605 25.0746 20.2265 25.0746C18.3925 25.0746 16.9058 26.5447 16.9058 28.3582C16.9058 30.1716 18.3925 31.6418 20.2265 31.6418Z" fill="#020817"/>
<path opacity="0.1" d="M28.6792 14.9254C30.5132 14.9254 31.9999 13.4553 31.9999 11.6418C31.9999 9.82833 30.5132 8.35822 28.6792 8.35822C26.8452 8.35822 25.3584 9.82833 25.3584 11.6418C25.3584 13.4553 26.8452 14.9254 28.6792 14.9254Z" fill="#020817"/>
<path opacity="0.1" d="M28.6792 40C30.5132 40 31.9999 38.5299 31.9999 36.7164C31.9999 34.9029 30.5132 33.4328 28.6792 33.4328C26.8452 33.4328 25.3584 34.9029 25.3584 36.7164C25.3584 38.5299 26.8452 40 28.6792 40Z" fill="#020817"/>
</svg>
